<svg id="visual" viewBox="0 0 1600 900" width="1600" height="900" xmlns="http://www.w3.org/2000/svg" xmlns:xlink="http://www.w3.org/1999/xlink" version="1.1"><rect x="0" y="0" width="1600" height="900" fill="#002233"></rect><path d="M0 702L38.2 681.7C76.3 661.3 152.7 620.7 228.8 607.7C305 594.7 381 609.3 457.2 620.3C533.3 631.3 609.7 638.7 685.8 631.5C762 624.3 838 602.7 914.2 611.2C990.3 619.7 1066.7 658.3 1142.8 686.5C1219 714.7 1295 732.3 1371.2 716.5C1447.3 700.7 1523.7 651.3 1561.8 626.7L1600 602L1600 901L1561.8 901C1523.7 901 1447.3 901 1371.2 901C1295 901 1219 901 1142.8 901C1066.7 901 990.3 901 914.2 901C838 901 762 901 685.8 901C609.7 901 533.3 901 457.2 901C381 901 305 901 228.8 901C152.7 901 76.3 901 38.2 901L0 901Z" fill="#0066FF" stroke-linecap="round" stroke-linejoin="miter"></path></svg>