<svg id="visual" viewBox="0 0 1920 1080" width="1920" height="1080" xmlns="http://www.w3.org/2000/svg" xmlns:xlink="http://www.w3.org/1999/xlink" version="1.1"><rect x="0" y="0" width="1920" height="1080" fill="#002233"></rect><path d="M0 770L45.7 768.8C91.3 767.7 182.7 765.3 274.2 787.8C365.7 810.3 457.3 857.7 548.8 854.8C640.3 852 731.7 799 823 765.8C914.3 732.7 1005.7 719.3 1097 720.8C1188.3 722.3 1279.7 738.7 1371.2 734.3C1462.7 730 1554.3 705 1645.8 710.2C1737.3 715.3 1828.7 750.7 1874.3 768.3L1920 786L1920 1081L1874.3 1081C1828.7 1081 1737.3 1081 1645.8 1081C1554.3 1081 1462.7 1081 1371.2 1081C1279.7 1081 1188.3 1081 1097 1081C1005.7 1081 914.3 1081 823 1081C731.7 1081 640.3 1081 548.8 1081C457.3 1081 365.7 1081 274.2 1081C182.7 1081 91.3 1081 45.7 1081L0 1081Z" fill="#0066FF" stroke-linecap="round" stroke-linejoin="miter"></path></svg>